
<svg xmlns="http://www.w3.org/2000/svg" width="63" height="62" viewBox="0 0 63 62" fill="none"><path opacity="0.1" d="M0.144043 56.6641V54.7601C2.32004 52.8561 4.40538 49.7281 6.40004 45.3761C8.48538 41.0241 9.52804 35.9921 9.52804 30.2801C9.52804 27.6508 9.12004 25.5201 8.30404 23.8881C7.48804 22.2561 6.30938 20.4881 4.76804 18.5841C3.40804 16.9521 2.36538 15.5015 1.64004 14.2321C1.00538 12.9628 0.688044 11.3761 0.688044 9.47212C0.688044 6.75212 1.54938 4.53079 3.27204 2.80812C5.08538 1.08545 7.35204 0.224121 10.072 0.224121C12.792 0.224121 15.2854 1.26679 17.552 3.35212C19.8187 5.43746 21.5867 8.20279 22.856 11.6481C24.216 15.0935 24.896 18.7655 24.896 22.6641C24.896 28.7388 23.808 34.4508 21.632 39.8001C19.5467 45.0588 16.9627 49.5468 13.88 53.2641C10.7974 56.8908 7.85071 59.4748 5.04004 61.0161H4.90404L0.144043 56.6641ZM37.952 56.6641V54.7601C40.128 52.8561 42.2134 49.7281 44.208 45.3761C46.2934 41.0241 47.336 35.9921 47.336 30.2801C47.336 27.6508 46.928 25.5201 46.112 23.8881C45.296 22.2561 44.1174 20.4881 42.576 18.5841C41.216 16.9521 40.1734 15.5015 39.448 14.2321C38.8134 12.9628 38.496 11.3761 38.496 9.47212C38.496 6.75212 39.3574 4.53079 41.08 2.80812C42.8934 1.08545 45.1147 0.224121 47.744 0.224121C50.464 0.224121 52.9574 1.26679 55.224 3.35212C57.5814 5.43746 59.3947 8.20279 60.664 11.6481C62.024 15.0935 62.704 18.7655 62.704 22.6641C62.704 28.7388 61.616 34.4508 59.44 39.8001C57.3547 45.0588 54.7707 49.5468 51.688 53.2641C48.6054 56.8908 45.6587 59.4748 42.848 61.0161H42.712L37.952 56.6641Z" fill="white"/></svg>